<?xml version="1.0" standalone="no"?>
<!DOCTYPE svg PUBLIC "-//W3C//DTD SVG 20010904//EN"
 "http://www.w3.org/TR/2001/REC-SVG-20010904/DTD/svg10.dtd">
<svg version="1.0" xmlns="http://www.w3.org/2000/svg"
 width="2000.000000pt" height="2000.000000pt" viewBox="0 0 2000.000000 2000.000000"
 preserveAspectRatio="xMidYMid meet">
<metadata>
Created by potrace 1.11, written by Peter Selinger 2001-2013
</metadata>
<g transform="translate(0.000000,2000.000000) scale(0.100000,-0.100000)"
fill="#000000" stroke="none">
<path d="M6002 19993 c-32 -4 -72 -48 -247 -277 -17 -22 -51 -66 -76 -100 -32
-41 -54 -61 -70 -62 -33 -2 -202 -14 -274 -19 -64 -5 -171 -12 -295 -20 -41
-3 -102 -7 -135 -10 -33 -3 -91 -7 -130 -10 -38 -2 -110 -7 -160 -11 -49 -3
-102 -7 -117 -8 -15 -1 -29 -4 -32 -7 -3 -3 -35 -152 -71 -330 -36 -178 -69
-333 -73 -343 -7 -15 -52 -31 -213 -74 -112 -29 -216 -56 -231 -59 -15 -3 -31
-10 -36 -17 -5 -6 -40 -81 -77 -166 -37 -85 -82 -189 -100 -230 -99 -225 -140
-321 -205 -475 -40 -93 -80 -188 -90 -210 -56 -125 -53 -101 -55 -410 -1 -304
0 -296 -52 -465 -2 -8 -5 -17 -5 -20 0 -3 -5 -16 -10 -30 -5 -14 -11 -32 -13
-40 -2 -8 -20 -69 -40 -135 -20 -66 -47 -158 -61 -205 -37 -128 -65 -212 -79
-245 -8 -16 -57 -137 -110 -268 l-96 -238 46 -147 c25 -81 63 -201 85 -267 21
-66 59 -187 85 -270 25 -82 52 -168 60 -190 42 -125 86 -279 90 -317 3 -24 8
-68 11 -98 4 -30 8 -68 9 -85 9 -107 17 -183 21 -205 2 -14 6 -59 10 -100 3
-41 7 -86 9 -100 2 -14 7 -56 10 -95 4 -38 8 -83 10 -100 2 -16 7 -61 10 -100
7 -79 15 -112 87 -340 27 -88 57 -182 65 -209 8 -27 52 -144 97 -260 46 -116
111 -299 145 -406 35 -107 84 -258 109 -335 26 -81 46 -163 48 -195 3 -78 16
-354 18 -423 3 -56 -3 -81 -90 -382 -8 -27 -17 -57 -19 -65 -2 -8 -7 -24 -10
-35 -4 -14 4 -34 22 -60 209 -291 286 -443 288 -572 1 -41 -2 -76 -7 -79 -7
-4 -113 -33 -180 -48 -25 -6 -26 -9 -23 -58 2 -29 6 -109 10 -178 10 -219 16
-261 51 -392 18 -70 36 -138 38 -150 2 -13 10 -45 16 -73 8 -32 14 -160 16
-355 2 -168 5 -318 8 -335 2 -16 8 -75 11 -130 4 -55 10 -109 12 -120 3 -11 8
-213 10 -450 5 -471 -1 -411 71 -696 9 -37 25 -77 34 -90 257 -348 318 -422
483 -595 48 -50 53 -52 115 -58 36 -3 94 -9 130 -13 95 -10 117 -9 230 12 167
30 169 29 171 -35 0 -19 2 -42 4 -50 1 -8 5 -45 9 -82 3 -36 8 -81 10 -100 6
-43 16 -129 22 -198 3 -30 16 -98 30 -150 14 -52 28 -106 30 -119 6 -29 45
-127 225 -566 l143 -349 231 -347 230 -347 216 -220 c152 -155 218 -229 222
-249 2 -15 14 -68 25 -118 11 -49 39 -175 62 -280 23 -104 51 -228 62 -275 17
-75 24 -222 19 -366 l-1 -22 -96 24 -96 25 -91 -46 c-51 -25 -130 -65 -175
-89 -94 -49 -88 -48 -222 -2 l-75 26 -40 -28 c-22 -15 -76 -53 -120 -83 -44
-31 -87 -55 -95 -54 -8 1 -44 5 -80 9 -36 4 -78 9 -95 11 -16 2 -55 6 -85 9
l-55 5 -82 -77 -82 -78 -188 -38 c-103 -21 -193 -39 -199 -40 -7 -1 -18 -7
-25 -13 -46 -37 -334 -225 -351 -228 -12 -3 -87 -7 -167 -10 -207 -9 -204 -8
-263 -57 -29 -24 -55 -45 -58 -48 -3 -3 -37 -31 -76 -62 -58 -47 -74 -67 -87
-105 -9 -27 -28 -79 -42 -118 -15 -38 -31 -83 -35 -100 -11 -39 -10 -445 1
-467 5 -9 30 -38 55 -65 25 -26 72 -75 104 -109 l58 -60 141 -1 140 0 68 -59
c37 -32 73 -63 79 -69 21 -19 170 -153 274 -245 111 -98 120 -108 160 -160 14
-18 32 -41 41 -51 16 -19 195 -19 7098 -17 l7081 3 -172 63 c-95 35 -225 83
-288 107 -63 24 -221 82 -350 129 -129 48 -244 91 -255 96 -11 5 -83 31 -160
59 -316 114 -425 157 -447 177 -20 18 -79 81 -259 278 -89 98 -94 101 -160
125 -35 13 -104 38 -154 56 -474 173 -546 202 -617 246 -43 27 -78 45 -78 42
0 -3 -8 1 -17 9 -10 8 -128 79 -263 158 -135 78 -255 149 -267 156 -11 7 -73
91 -136 186 -101 153 -140 225 -237 443 -12 28 -33 72 -46 98 -22 47 -64 205
-174 662 -27 116 -55 229 -61 253 -10 37 -27 56 -118 133 -58 50 -135 116
-170 147 -35 32 -71 61 -81 65 -12 6 -40 -3 -96 -32 -65 -33 -82 -47 -96 -78
-10 -21 -38 -82 -63 -136 -25 -55 -45 -101 -45 -103 0 -2 -11 -27 -24 -56 -13
-29 -40 -87 -59 -128 -24 -53 -48 -88 -83 -119 -27 -25 -106 -98 -176 -164
-70 -65 -130 -119 -134 -120 -4 -1 -8 17 -10 40 -1 23 -7 93 -13 155 -6 62
-13 138 -15 168 -3 30 -8 91 -13 135 -13 129 -10 371 12 840 2 50 7 151 10
225 19 464 24 551 34 586 11 37 98 269 117 311 8 17 14 34 14 38 0 4 25 73 56
154 30 80 65 171 76 201 12 30 27 69 34 85 12 28 16 71 29 260 16 244 27 398
30 415 2 8 6 49 10 90 4 41 9 83 11 93 1 9 6 54 10 100 3 45 8 84 9 87 2 3 6
37 10 75 4 39 9 81 11 95 6 48 19 344 23 533 l1 39 128 -8 c228 -13 223 -13
267 17 66 45 301 196 323 208 11 6 35 37 53 68 18 32 58 101 89 153 109 183
198 336 230 395 18 33 64 118 102 189 l70 129 -7 91 c-4 50 -9 102 -10 116
-12 96 -16 171 -20 363 -2 119 -6 220 -8 225 -3 4 -8 41 -12 82 -4 41 -8 77
-10 80 -1 3 -6 37 -9 75 -4 39 -9 77 -11 85 -9 37 -24 217 -50 600 -3 41 -7
100 -10 130 -2 30 -7 98 -10 150 -3 52 -8 113 -10 135 -2 22 -7 85 -11 140 -6
88 -10 136 -13 156 -1 4 -57 48 -124 99 l-124 93 28 86 c15 47 46 141 68 209
41 124 109 356 117 401 3 13 9 31 13 40 8 15 27 109 24 121 -1 3 -4 91 -8 195
-3 105 -8 240 -10 300 -21 566 -21 628 0 955 10 156 13 419 5 466 -4 28 -11
75 -14 105 -8 69 -26 217 -31 249 -2 14 -6 52 -10 85 -4 32 -8 66 -10 75 -2 8
-6 44 -9 80 -4 36 -10 88 -14 115 -11 76 -11 83 29 325 10 63 21 138 25 165 3
28 8 59 10 70 2 10 6 37 9 60 9 60 15 97 20 125 6 33 13 75 20 130 3 25 10 68
15 95 6 28 11 68 12 90 2 38 -2 59 -39 215 -8 36 -17 75 -19 88 -3 13 -18 83
-35 155 -17 73 -33 143 -35 157 -3 14 -11 50 -19 80 -8 30 -16 66 -19 80 -2
14 -11 54 -20 90 -8 36 -18 121 -22 190 -4 69 -8 139 -9 155 -2 17 -3 53 -4
81 -1 50 -5 57 -126 215 -69 90 -131 171 -138 179 -6 9 -46 61 -88 116 -71 93
-78 106 -88 170 -6 38 -13 80 -16 94 -2 14 -14 84 -26 155 -12 72 -23 137 -24
145 -2 8 -4 21 -4 27 -1 11 -14 25 -85 88 -6 6 -38 32 -71 60 -33 27 -62 52
-65 55 -3 3 -86 75 -185 159 -155 132 -245 213 -409 365 -61 57 -241 223 -286
264 -25 23 -146 102 -270 177 -124 75 -279 173 -345 218 -414 284 -439 300
-613 393 l-62 34 -3118 -2 c-1714 -1 -3132 -3 -3150 -5z"/>
</g>
</svg>
